<?xml version="1.0" standalone="no"?>
<!DOCTYPE svg PUBLIC "-//W3C//DTD SVG 20010904//EN"
 "http://www.w3.org/TR/2001/REC-SVG-20010904/DTD/svg10.dtd">
<svg version="1.0" xmlns="http://www.w3.org/2000/svg"
 width="32.000000pt" height="32.000000pt" viewBox="0 0 32.000000 32.000000"
 preserveAspectRatio="xMidYMid meet">

<g transform="translate(0.000000,32.000000) scale(0.100000,-0.100000)"
fill="#000000" stroke="none">
<path d="M82 278 c3 -7 13 -15 24 -16 10 -2 24 -9 29 -14 7 -7 1 -8 -19 -4
-17 4 -35 15 -42 24 -11 16 -14 15 -32 -1 -49 -45 -28 -119 56 -201 59 -57 67
-56 134 10 57 56 80 101 72 143 -8 39 -31 60 -40 37 -4 -11 -18 -16 -43 -16
l-36 0 25 20 c20 16 22 20 7 20 -9 0 -26 -6 -37 -12 -16 -10 -25 -9 -49 5 -34
20 -54 22 -49 5z"/>
</g>
</svg>
